<mxfile host="65bd71144e">
    <diagram id="112R7TD28rMJtDS3k_kL" name="Page-1">
        <mxGraphModel dx="90" dy="1030" grid="0" gridSize="10" guides="1" tooltips="1" connect="1" arrows="1" fold="1" page="1" pageScale="1" pageWidth="850" pageHeight="1100" background="#ffffff" math="0" shadow="0">
            <root>
                <mxCell id="0"/>
                <mxCell id="1" parent="0"/>
                <mxCell id="30" value="" style="rounded=0;whiteSpace=wrap;html=1;fillColor=none;" parent="1" vertex="1">
                    <mxGeometry x="861" y="18" width="819" height="956" as="geometry"/>
                </mxCell>
                <mxCell id="2" value="" style="shape=folder;fontStyle=1;spacingTop=10;tabWidth=190;tabHeight=35;tabPosition=left;html=1;strokeColor=#000000;fillColor=none;" parent="1" vertex="1">
                    <mxGeometry x="884" y="52" width="777" height="898" as="geometry"/>
                </mxCell>
                <mxCell id="3" value="&lt;font color=&quot;#000000&quot;&gt;Author&lt;/font&gt;" style="swimlane;fontStyle=1;align=center;verticalAlign=top;childLayout=stackLayout;horizontal=1;startSize=26;horizontalStack=0;resizeParent=1;resizeParentMax=0;resizeLast=0;collapsible=1;marginBottom=0;whiteSpace=wrap;html=1;fillColor=none;strokeColor=#000000;" parent="1" vertex="1">
                    <mxGeometry x="1427" y="161" width="190" height="123" as="geometry"/>
                </mxCell>
                <mxCell id="4" value="&lt;font color=&quot;#000000&quot;&gt;+ AuthorID : Guid&lt;br style=&quot;border-color: var(--border-color);&quot;&gt;+ Name : string&lt;br style=&quot;border-color: var(--border-color);&quot;&gt;+ Email : string&lt;br style=&quot;border-color: var(--border-color);&quot;&gt;+&lt;/font&gt;&lt;span style=&quot;color: rgb(0, 0, 0);&quot;&gt;Cheeps :&amp;nbsp;&lt;/span&gt;&lt;font color=&quot;#000000&quot;&gt;List&amp;lt;CheepDTO&amp;gt;&lt;br&gt;+ Followed :&amp;nbsp;&lt;/font&gt;&lt;span style=&quot;color: rgb(0, 0, 0);&quot;&gt;List&amp;lt;AuthorDTO&amp;gt;&lt;/span&gt;&lt;font color=&quot;#000000&quot;&gt;&lt;br&gt;+ Followers :&amp;nbsp;&lt;/font&gt;&lt;span style=&quot;color: rgb(0, 0, 0);&quot;&gt;List&amp;lt;AuthorDTO&amp;gt;&lt;/span&gt;&lt;font color=&quot;#000000&quot;&gt;&lt;br&gt;&lt;/font&gt;" style="text;strokeColor=none;fillColor=none;align=left;verticalAlign=top;spacingLeft=4;spacingRight=4;overflow=hidden;rotatable=0;points=[[0,0.5],[1,0.5]];portConstraint=eastwest;whiteSpace=wrap;html=1;" parent="3" vertex="1">
                    <mxGeometry y="26" width="190" height="97" as="geometry"/>
                </mxCell>
                <mxCell id="33" style="edgeStyle=none;html=1;exitX=0.5;exitY=0;exitDx=0;exitDy=0;strokeColor=#000000;" parent="1" source="5" target="4" edge="1">
                    <mxGeometry relative="1" as="geometry"/>
                </mxCell>
                <mxCell id="5" value="&lt;font color=&quot;#000000&quot;&gt;Cheep&lt;/font&gt;" style="swimlane;fontStyle=1;align=center;verticalAlign=top;childLayout=stackLayout;horizontal=1;startSize=26;horizontalStack=0;resizeParent=1;resizeParentMax=0;resizeLast=0;collapsible=1;marginBottom=0;whiteSpace=wrap;html=1;fillColor=none;strokeColor=#000000;" parent="1" vertex="1">
                    <mxGeometry x="1427" y="348" width="190" height="108" as="geometry"/>
                </mxCell>
                <mxCell id="6" value="&lt;font color=&quot;#000000&quot;&gt;+ CheepID :&amp;nbsp;&lt;/font&gt;&lt;span style=&quot;color: rgb(0, 0, 0);&quot;&gt;Guid&lt;/span&gt;&lt;font color=&quot;#000000&quot;&gt;&lt;br&gt;+ Author :&amp;nbsp;&lt;/font&gt;&lt;span style=&quot;color: rgb(0, 0, 0);&quot;&gt;Author&lt;/span&gt;&lt;font color=&quot;#000000&quot;&gt;&lt;br&gt;+ Text : string&lt;/font&gt;&lt;font color=&quot;#000000&quot;&gt;&lt;br&gt;+ Likes : int&lt;br&gt;+ TimeStamp :&amp;nbsp;&lt;/font&gt;&lt;span style=&quot;color: rgb(0, 0, 0);&quot;&gt;DateTime&lt;/span&gt;" style="text;strokeColor=none;fillColor=none;align=left;verticalAlign=top;spacingLeft=4;spacingRight=4;overflow=hidden;rotatable=0;points=[[0,0.5],[1,0.5]];portConstraint=eastwest;whiteSpace=wrap;html=1;" parent="5" vertex="1">
                    <mxGeometry y="26" width="190" height="82" as="geometry"/>
                </mxCell>
                <mxCell id="36" style="edgeStyle=none;html=1;exitX=0.5;exitY=0;exitDx=0;exitDy=0;strokeColor=#000000;" parent="1" source="8" target="19" edge="1">
                    <mxGeometry relative="1" as="geometry"/>
                </mxCell>
                <mxCell id="8" value="&lt;font color=&quot;#000000&quot;&gt;AuthorRepository&lt;/font&gt;" style="swimlane;fontStyle=1;align=center;verticalAlign=top;childLayout=stackLayout;horizontal=1;startSize=26;horizontalStack=0;resizeParent=1;resizeParentMax=0;resizeLast=0;collapsible=1;marginBottom=0;whiteSpace=wrap;html=1;strokeColor=#000000;fillColor=none;" parent="1" vertex="1">
                    <mxGeometry x="936.25" y="691" width="531.5" height="241" as="geometry"/>
                </mxCell>
                <mxCell id="9" value="&lt;font color=&quot;#000000&quot;&gt;- db : ChirpDBContext&lt;/font&gt;" style="text;strokeColor=none;fillColor=none;align=left;verticalAlign=top;spacingLeft=4;spacingRight=4;overflow=hidden;rotatable=0;points=[[0,0.5],[1,0.5]];portConstraint=eastwest;whiteSpace=wrap;html=1;" parent="8" vertex="1">
                    <mxGeometry y="26" width="531.5" height="24" as="geometry"/>
                </mxCell>
                <mxCell id="10" value="" style="line;strokeWidth=1;fillColor=none;align=left;verticalAlign=middle;spacingTop=-1;spacingLeft=3;spacingRight=3;rotatable=0;labelPosition=right;points=[];portConstraint=eastwest;strokeColor=inherit;" parent="8" vertex="1">
                    <mxGeometry y="50" width="531.5" height="8" as="geometry"/>
                </mxCell>
                <mxCell id="11" value="&lt;font color=&quot;#000000&quot;&gt;+ AuthorRepository (db : ChirpDBContext)&lt;br&gt;+ AddAuthor(name : string, email : string) : Task&lt;br&gt;&lt;/font&gt;&lt;span style=&quot;color: rgb(0, 0, 0);&quot;&gt;+ DeleteAuthor(AuthorId : Guid) : Task&lt;/span&gt;&lt;font color=&quot;#000000&quot;&gt;&lt;br&gt;+ GetAuthorByName(name : string) : Task&amp;lt;Author&amp;gt;&lt;br&gt;+ GetAuthorByEmail(email : string) : Task&amp;lt;Author&amp;gt;&lt;br&gt;+ RemoveFollowee(_AuthorName : string, _FolloweeName : string) : Task&lt;br&gt;+ DoesAuthorExist(email : string) : Task&amp;lt;bool&amp;gt;&lt;br&gt;+ AddFollowee(_AuthorName : string, _FolloweeName : string)&amp;nbsp; : Task&lt;br&gt;- GetAllCheepsFromAuthor(Name: string, _dbcontext : ChirpDBContext) : List&amp;lt;CheepDTO&amp;gt;&lt;br&gt;- GetAllFollowedAuthor(AuthorId : Guid, ChirpDBContext _dbcontext) : List&amp;lt;AuthorDTO&amp;gt;&lt;br&gt;- GetAllFollowers(AuthorId : Guid, _dbcontext :&lt;/font&gt;&lt;span style=&quot;color: rgb(0, 0, 0);&quot;&gt;ChirpDBContext&lt;/span&gt;&lt;font color=&quot;#000000&quot;&gt;) : List&amp;lt;AuthorDTO&amp;gt;&lt;br&gt;&lt;/font&gt;" style="text;strokeColor=none;fillColor=none;align=left;verticalAlign=top;spacingLeft=4;spacingRight=4;overflow=hidden;rotatable=0;points=[[0,0.5],[1,0.5]];portConstraint=eastwest;whiteSpace=wrap;html=1;" parent="8" vertex="1">
                    <mxGeometry y="58" width="531.5" height="183" as="geometry"/>
                </mxCell>
                <mxCell id="38" style="edgeStyle=none;html=1;entryX=0.25;entryY=0;entryDx=0;entryDy=0;strokeColor=#000000;exitX=0.376;exitY=0.998;exitDx=0;exitDy=0;exitPerimeter=0;" parent="1" source="15" target="16" edge="1">
                    <mxGeometry relative="1" as="geometry">
                        <mxPoint x="1087" y="406" as="sourcePoint"/>
                    </mxGeometry>
                </mxCell>
                <mxCell id="12" value="&lt;font color=&quot;#000000&quot;&gt;CheepRepository&lt;/font&gt;" style="swimlane;fontStyle=1;align=center;verticalAlign=top;childLayout=stackLayout;horizontal=1;startSize=26;horizontalStack=0;resizeParent=1;resizeParentMax=0;resizeLast=0;collapsible=1;marginBottom=0;whiteSpace=wrap;html=1;strokeColor=#000000;fillColor=none;" parent="1" vertex="1">
                    <mxGeometry x="893" y="105" width="522" height="303" as="geometry"/>
                </mxCell>
                <mxCell id="13" value="&lt;font color=&quot;#000000&quot;&gt;- _db : ChirpDBContext&lt;br&gt;- _validator : CheepCreateValidator&amp;lt;&lt;font style=&quot;font-size: 12px;&quot;&gt;CheepCreateDTO&amp;gt;&lt;/font&gt;&lt;span style=&quot;font-family: Consolas, &amp;quot;Courier New&amp;quot;, monospace; font-size: 14px;&quot;&gt;&amp;nbsp;&lt;/span&gt;&lt;/font&gt;" style="text;strokeColor=none;fillColor=none;align=left;verticalAlign=top;spacingLeft=4;spacingRight=4;overflow=hidden;rotatable=0;points=[[0,0.5],[1,0.5]];portConstraint=eastwest;whiteSpace=wrap;html=1;" parent="12" vertex="1">
                    <mxGeometry y="26" width="522" height="44" as="geometry"/>
                </mxCell>
                <mxCell id="14" value="" style="line;strokeWidth=1;fillColor=none;align=left;verticalAlign=middle;spacingTop=-1;spacingLeft=3;spacingRight=3;rotatable=0;labelPosition=right;points=[];portConstraint=eastwest;strokeColor=inherit;" parent="12" vertex="1">
                    <mxGeometry y="70" width="522" height="8" as="geometry"/>
                </mxCell>
                <mxCell id="15" value="&lt;font color=&quot;#000000&quot;&gt;&lt;font style=&quot;font-size: 12px;&quot;&gt;+&amp;nbsp;CheepRepository(db : ChirpDBContext)&lt;/font&gt;&lt;br&gt;+ DeleteCheepsFromAuthor(authorid : Guid) : Task&lt;br&gt;+ GetCheeps(pageNum : int) : List&amp;lt;CheepDTO&amp;gt;&lt;br&gt;+ GetCheepsFromAuthor(authorName : string, pageNum : int) : List&amp;lt;CheepDTO&amp;gt;&lt;br&gt;- GetRangeOfCheeps(pageNum : int, cheepsToReturn :&lt;/font&gt;&lt;span style=&quot;color: rgb(0, 0, 0);&quot;&gt;List&amp;lt;CheepDTO&amp;gt;&lt;/span&gt;&lt;font color=&quot;#000000&quot;&gt;) : List&amp;lt;CheepDTO&amp;gt;&lt;br&gt;+ GetCountOfAllCheeps() : int&lt;br&gt;+ GetCountOfAllCheepFromAuthor(authorName : string) : int&lt;br&gt;-&amp;nbsp; GetAuthorById(id : Guid) : Author&lt;br&gt;+ Create(cheep : CheepCreateDTO) : Task&lt;br&gt;+ IncreaseLikeAttributeInCheep(cheepId : Guid) : Task&lt;br&gt;- GetCheepsFromFollowed(AuthorName : string) : List&amp;lt;CheepDTO&amp;gt;&lt;br&gt;- GetAllCheepsFromAuthor(AuthorName : string) : List&amp;lt;CheepDTO&amp;gt;&lt;br&gt;+ CombineCheepsAndFollowerCheeps(AuthorName : string, pageNum : int) : List&amp;lt;CheepDTO&amp;gt;&lt;br&gt;+ GetCountOfAllCheepsFromCombinedAuthor(AuthorName : string) : int&lt;br&gt;&lt;/font&gt;" style="text;strokeColor=none;fillColor=none;align=left;verticalAlign=top;spacingLeft=4;spacingRight=4;overflow=hidden;rotatable=0;points=[[0,0.5],[1,0.5]];portConstraint=eastwest;whiteSpace=wrap;html=1;" parent="12" vertex="1">
                    <mxGeometry y="78" width="522" height="225" as="geometry"/>
                </mxCell>
                <mxCell id="34" style="edgeStyle=none;html=1;exitX=0.75;exitY=0;exitDx=0;exitDy=0;entryX=0.732;entryY=0.99;entryDx=0;entryDy=0;entryPerimeter=0;strokeColor=#000000;rounded=0;" parent="1" source="16" target="4" edge="1">
                    <mxGeometry relative="1" as="geometry">
                        <Array as="points">
                            <mxPoint x="1315" y="508"/>
                            <mxPoint x="1643" y="506"/>
                            <mxPoint x="1641" y="322"/>
                            <mxPoint x="1566" y="322"/>
                        </Array>
                    </mxGeometry>
                </mxCell>
                <mxCell id="35" style="edgeStyle=none;rounded=0;html=1;exitX=0.5;exitY=0;exitDx=0;exitDy=0;entryX=0.522;entryY=1.02;entryDx=0;entryDy=0;entryPerimeter=0;strokeColor=#000000;" parent="1" source="16" target="6" edge="1">
                    <mxGeometry relative="1" as="geometry">
                        <Array as="points">
                            <mxPoint x="1202" y="486"/>
                            <mxPoint x="1526" y="485"/>
                        </Array>
                    </mxGeometry>
                </mxCell>
                <mxCell id="16" value="&lt;font color=&quot;#000000&quot;&gt;ChirpDBContext&lt;/font&gt;" style="swimlane;fontStyle=1;align=center;verticalAlign=top;childLayout=stackLayout;horizontal=1;startSize=26;horizontalStack=0;resizeParent=1;resizeParentMax=0;resizeLast=0;collapsible=1;marginBottom=0;whiteSpace=wrap;html=1;strokeColor=#000000;fillColor=none;" parent="1" vertex="1">
                    <mxGeometry x="977" y="524" width="450" height="120" as="geometry"/>
                </mxCell>
                <mxCell id="17" value="&lt;font color=&quot;#000000&quot;&gt;+&amp;nbsp;&lt;/font&gt;&lt;font color=&quot;#000000&quot;&gt;Cheeps :&amp;nbsp;&lt;/font&gt;&lt;span style=&quot;color: rgb(0, 0, 0);&quot;&gt;DbSet&amp;lt;Cheep&amp;gt;&lt;/span&gt;&lt;font color=&quot;#000000&quot;&gt;&lt;br&gt;+&amp;nbsp;&lt;/font&gt;&lt;font color=&quot;#000000&quot;&gt;Authors :&amp;nbsp;&lt;/font&gt;&lt;span style=&quot;color: rgb(0, 0, 0);&quot;&gt;DbSet&amp;lt;Author&amp;gt;&lt;/span&gt;" style="text;strokeColor=none;fillColor=none;align=left;verticalAlign=top;spacingLeft=4;spacingRight=4;overflow=hidden;rotatable=0;points=[[0,0.5],[1,0.5]];portConstraint=eastwest;whiteSpace=wrap;html=1;" parent="16" vertex="1">
                    <mxGeometry y="26" width="450" height="44" as="geometry"/>
                </mxCell>
                <mxCell id="18" value="" style="line;strokeWidth=1;fillColor=none;align=left;verticalAlign=middle;spacingTop=-1;spacingLeft=3;spacingRight=3;rotatable=0;labelPosition=right;points=[];portConstraint=eastwest;strokeColor=inherit;" parent="16" vertex="1">
                    <mxGeometry y="70" width="450" height="8" as="geometry"/>
                </mxCell>
                <mxCell id="19" value="&lt;font color=&quot;#000000&quot;&gt;+ ChirpDBContext(options :&lt;/font&gt;&lt;span style=&quot;color: rgb(0, 0, 0);&quot;&gt;DbContextOptions&amp;lt;ChirpDBContext&amp;gt;&lt;/span&gt;&lt;font color=&quot;#000000&quot;&gt;)&lt;br&gt;# OnModelCreating(&lt;/font&gt;&lt;span style=&quot;color: rgb(0, 0, 0);&quot;&gt;modelBuilder :&amp;nbsp;&lt;/span&gt;&lt;font color=&quot;#000000&quot;&gt;ModelBuilder) : void&lt;/font&gt;" style="text;strokeColor=none;fillColor=none;align=left;verticalAlign=top;spacingLeft=4;spacingRight=4;overflow=hidden;rotatable=0;points=[[0,0.5],[1,0.5]];portConstraint=eastwest;whiteSpace=wrap;html=1;" parent="16" vertex="1">
                    <mxGeometry y="78" width="450" height="42" as="geometry"/>
                </mxCell>
                <mxCell id="24" value="&lt;font color=&quot;#000000&quot; style=&quot;font-size: 20px;&quot;&gt;Chirp.Infrastructure&lt;/font&gt;" style="text;html=1;strokeColor=none;fillColor=none;align=center;verticalAlign=middle;whiteSpace=wrap;rounded=0;" parent="1" vertex="1">
                    <mxGeometry x="957" y="48" width="60" height="30" as="geometry"/>
                </mxCell>
                <mxCell id="25" value="&lt;font color=&quot;#000000&quot;&gt;ChirpDBContext*&lt;/font&gt;" style="text;html=1;strokeColor=none;fillColor=none;align=center;verticalAlign=middle;whiteSpace=wrap;rounded=0;" parent="1" vertex="1">
                    <mxGeometry x="1006" y="434" width="60" height="30" as="geometry"/>
                </mxCell>
                <mxCell id="26" value="&lt;font color=&quot;#000000&quot;&gt;Cheep*&lt;/font&gt;" style="text;html=1;strokeColor=none;fillColor=none;align=center;verticalAlign=middle;whiteSpace=wrap;rounded=0;" parent="1" vertex="1">
                    <mxGeometry x="1302" y="456" width="60" height="30" as="geometry"/>
                </mxCell>
                <mxCell id="27" value="&lt;font color=&quot;#000000&quot;&gt;Author*&lt;/font&gt;" style="text;html=1;strokeColor=none;fillColor=none;align=center;verticalAlign=middle;whiteSpace=wrap;rounded=0;" parent="1" vertex="1">
                    <mxGeometry x="1528" y="508" width="60" height="30" as="geometry"/>
                </mxCell>
                <mxCell id="28" value="&lt;font color=&quot;#000000&quot;&gt;ChirpDBContext*&lt;/font&gt;" style="text;html=1;strokeColor=none;fillColor=none;align=center;verticalAlign=middle;whiteSpace=wrap;rounded=0;" parent="1" vertex="1">
                    <mxGeometry x="1122" y="658" width="60" height="30" as="geometry"/>
                </mxCell>
                <mxCell id="29" value="&lt;font color=&quot;#000000&quot;&gt;Author*&lt;/font&gt;" style="text;html=1;strokeColor=none;fillColor=none;align=center;verticalAlign=middle;whiteSpace=wrap;rounded=0;" parent="1" vertex="1">
                    <mxGeometry x="1458" y="301" width="60" height="30" as="geometry"/>
                </mxCell>
            </root>
        </mxGraphModel>
    </diagram>
</mxfile>